<svg width="232" height="44" viewBox="0 0 232 44" fill="none" xmlns="http://www.w3.org/2000/svg">
<path d="M66.2168 20.3989H62.557V32.7227H58.3289V20.3989H56V18.3611L58.3289 17.2243V16.0876C58.3289 14.3224 58.7633 13.0332 59.632 12.2199C60.5007 11.4066 61.8916 11 63.8047 11C65.2649 11 66.5633 11.2172 67.7001 11.6515L66.6188 14.7568C65.7685 14.4888 64.983 14.3548 64.2621 14.3548C63.6614 14.3548 63.2271 14.535 62.959 14.8954C62.691 15.2466 62.557 15.6994 62.557 16.2539V17.2243H66.2168V20.3989Z" fill="black"/>
<path d="M75.0477 32.7227H70.8196V11.1524H75.0477V32.7227Z" fill="black"/>
<path d="M85.916 19.9413C85.0196 19.9413 84.3172 20.2278 83.8089 20.8008C83.3006 21.3646 83.0095 22.1686 82.9356 23.2129H88.8688C88.8503 22.1686 88.5777 21.3646 88.0509 20.8008C87.5241 20.2278 86.8125 19.9413 85.916 19.9413ZM86.5121 32.9999C84.0169 32.9999 82.0669 32.3114 80.6621 30.9344C79.2574 29.5574 78.555 27.6074 78.555 25.0844C78.555 22.4874 79.2019 20.482 80.4958 19.068C81.7988 17.6448 83.5964 16.9332 85.8883 16.9332C88.0786 16.9332 89.7837 17.557 91.0036 18.8046C92.2235 20.0522 92.8335 21.7758 92.8335 23.9754V26.027H82.8385C82.8848 27.2285 83.2406 28.1665 83.906 28.8412C84.5714 29.5158 85.5048 29.8531 86.7062 29.8531C87.6396 29.8531 88.5222 29.7561 89.354 29.562C90.1857 29.3679 91.0545 29.0583 91.9602 28.6332V31.9048C91.2208 32.2745 90.4306 32.5471 89.5896 32.7227C88.7486 32.9075 87.7228 32.9999 86.5121 32.9999Z" fill="black"/>
<path d="M99.446 24.8071L94.4554 17.2243H99.2519L102.26 22.1594L105.296 17.2243H110.092L105.046 24.8071L110.328 32.7227H105.518L102.26 27.4133L98.9885 32.7227H94.192L99.446 24.8071Z" fill="black"/>
<path d="M126.561 32.7227H122.333V23.6704C122.333 22.5521 122.144 21.7158 121.765 21.1613C121.395 20.5975 120.808 20.3156 120.004 20.3156C118.923 20.3156 118.137 20.713 117.648 21.5078C117.158 22.3026 116.913 23.6103 116.913 25.4309V32.7227H112.685V17.2243H115.915L116.483 19.2066H116.719C117.135 18.495 117.735 17.9405 118.521 17.5431C119.307 17.1365 120.208 16.9332 121.224 16.9332C123.544 16.9332 125.115 17.691 125.937 19.2066H126.312C126.728 18.4858 127.338 17.9266 128.142 17.5292C128.955 17.1319 129.87 16.9332 130.886 16.9332C132.642 16.9332 133.969 17.386 134.865 18.2917C135.771 19.1881 136.224 20.6299 136.224 22.6168V32.7227H131.982V23.6704C131.982 22.5521 131.792 21.7158 131.413 21.1613C131.044 20.5975 130.457 20.3156 129.653 20.3156C128.618 20.3156 127.841 20.6853 127.324 21.4246C126.815 22.164 126.561 23.3377 126.561 24.9458V32.7227Z" fill="black"/>
<path d="M143.945 24.9458C143.945 26.4799 144.195 27.6397 144.694 28.4253C145.202 29.2108 146.024 29.6036 147.161 29.6036C148.289 29.6036 149.097 29.2154 149.587 28.4391C150.086 27.6536 150.336 26.4891 150.336 24.9458C150.336 23.4116 150.086 22.261 149.587 21.494C149.088 20.7269 148.27 20.3434 147.133 20.3434C146.006 20.3434 145.193 20.7269 144.694 21.494C144.195 22.2518 143.945 23.4024 143.945 24.9458ZM154.661 24.9458C154.661 27.4688 153.995 29.4419 152.665 30.8651C151.334 32.2883 149.481 32.9999 147.106 32.9999C145.618 32.9999 144.305 32.6765 143.169 32.0296C142.032 31.3734 141.159 30.4354 140.549 29.2154C139.939 27.9955 139.634 26.5723 139.634 24.9458C139.634 22.4135 140.295 20.445 141.616 19.0403C142.938 17.6355 144.795 16.9332 147.189 16.9332C148.677 16.9332 149.989 17.2566 151.126 17.9035C152.263 18.5505 153.136 19.4793 153.746 20.6899C154.356 21.9006 154.661 23.3192 154.661 24.9458Z" fill="black"/>
<path d="M172.46 32.7227H168.232V23.6704C168.232 22.5521 168.034 21.7158 167.636 21.1613C167.239 20.5975 166.606 20.3156 165.737 20.3156C164.554 20.3156 163.699 20.713 163.173 21.5078C162.646 22.2934 162.382 23.6011 162.382 25.4309V32.7227H158.154V17.2243H161.384L161.953 19.2066H162.188C162.66 18.458 163.307 17.8943 164.129 17.5154C164.961 17.1272 165.903 16.9332 166.957 16.9332C168.759 16.9332 170.127 17.423 171.06 18.4026C171.994 19.373 172.46 20.7777 172.46 22.6168V32.7227Z" fill="black"/>
<path d="M187.626 28.1203C187.626 29.7099 187.072 30.9206 185.963 31.7523C184.863 32.5841 183.213 32.9999 181.014 32.9999C179.886 32.9999 178.925 32.9214 178.13 32.7643C177.335 32.6164 176.592 32.3946 175.898 32.0989V28.6055C176.684 28.9752 177.567 29.2848 178.546 29.5343C179.535 29.7838 180.404 29.9086 181.152 29.9086C182.686 29.9086 183.454 29.465 183.454 28.5778C183.454 28.2451 183.352 27.9771 183.149 27.7737C182.945 27.5612 182.594 27.3255 182.095 27.0667C181.596 26.7987 180.931 26.4891 180.099 26.1379C178.907 25.6389 178.029 25.1768 177.465 24.7517C176.91 24.3266 176.504 23.8414 176.245 23.2961C175.995 22.7416 175.871 22.0623 175.871 21.2583C175.871 19.8813 176.402 18.8185 177.465 18.0699C178.537 17.3121 180.053 16.9332 182.012 16.9332C183.879 16.9332 185.695 17.3398 187.46 18.1531L186.184 21.2028C185.408 20.8701 184.683 20.5975 184.008 20.3849C183.333 20.1724 182.645 20.0661 181.943 20.0661C180.695 20.0661 180.071 20.4034 180.071 21.0781C180.071 21.457 180.27 21.7851 180.667 22.0623C181.074 22.3396 181.956 22.7508 183.315 23.2961C184.526 23.7859 185.413 24.2434 185.977 24.6685C186.54 25.0936 186.956 25.5834 187.224 26.1379C187.492 26.6924 187.626 27.3532 187.626 28.1203Z" fill="black"/>
<path d="M197.455 29.6313C198.194 29.6313 199.081 29.4696 200.116 29.1461V32.293C199.063 32.7643 197.769 32.9999 196.235 32.9999C194.544 32.9999 193.31 32.5748 192.534 31.7246C191.766 30.8651 191.383 29.5805 191.383 27.8708V20.3988H189.359V18.6105L191.688 17.1965L192.908 13.925H195.611V17.2243H199.95V20.3988H195.611V27.8708C195.611 28.4715 195.777 28.9151 196.11 29.2016C196.452 29.4881 196.9 29.6313 197.455 29.6313Z" fill="black"/>
<path d="M209.682 19.9413C208.785 19.9413 208.083 20.2278 207.575 20.8008C207.066 21.3646 206.775 22.1686 206.701 23.2129H212.634C212.616 22.1686 212.343 21.3646 211.816 20.8008C211.29 20.2278 210.578 19.9413 209.682 19.9413ZM210.278 32.9999C207.782 32.9999 205.832 32.3114 204.428 30.9344C203.023 29.5574 202.321 27.6074 202.321 25.0844C202.321 22.4874 202.967 20.482 204.261 19.068C205.564 17.6448 207.362 16.9332 209.654 16.9332C211.844 16.9332 213.549 17.557 214.769 18.8046C215.989 20.0522 216.599 21.7758 216.599 23.9754V26.027H206.604C206.65 27.2285 207.006 28.1665 207.672 28.8412C208.337 29.5158 209.27 29.8531 210.472 29.8531C211.405 29.8531 212.288 29.7561 213.12 29.562C213.951 29.3679 214.82 29.0583 215.726 28.6332V31.9048C214.986 32.2745 214.196 32.5471 213.355 32.7227C212.514 32.9075 211.488 32.9999 210.278 32.9999Z" fill="black"/>
<path d="M228.687 16.9332C229.26 16.9332 229.736 16.9747 230.115 17.0579L229.796 21.0226C229.454 20.9302 229.038 20.884 228.549 20.884C227.199 20.884 226.146 21.2306 225.388 21.9237C224.639 22.6168 224.265 23.5872 224.265 24.8349V32.7227H220.037V17.2243H223.239L223.863 19.8304H224.071C224.552 18.9617 225.199 18.264 226.012 17.7372C226.834 17.2012 227.726 16.9332 228.687 16.9332Z" fill="black"/>
<path fill-rule="evenodd" clip-rule="evenodd" d="M42.6143 0.00176718H21.9945C16.2342 -0.0726057 10.6811 2.20318 6.55646 6.32856C2.43179 10.4539 0.0733281 16.091 0 22C0.0360207 24.9259 0.633487 27.8159 1.75832 30.5049C2.88316 33.1939 4.51326 35.6293 6.55566 37.6721C8.59805 39.7148 11.0127 41.3249 13.6617 42.4103C16.3107 43.4958 19.1422 44.0353 21.9945 43.9982H22.0055C27.7658 44.0687 33.3179 41.7907 37.4419 37.6647C41.566 33.5387 43.9246 27.9021 44 21.9932V1.36791C43.9913 0.998768 43.841 0.648078 43.5814 0.392207C43.3219 0.136336 42.9742 -0.00399294 42.6143 0.00176718Z" fill="#DF3800"/>
<path fill-rule="evenodd" clip-rule="evenodd" d="M27.6 10.3077V15.5H29.9077V11.6557C33.0131 14.0663 35 17.8039 35 22C35 29.2 29.2 35 22 35C14.8 35 9 29.2 9 22C9 18.2 10.6 14.8 13.1 12.5L11.7 11.1C8.8 13.8 7 17.7 7 22C7 30.3 13.7 37 22 37C30.3 37 37 30.3 37 22C37 17.3183 34.8263 13.0714 31.4041 10.3077H35.1V8H29.9077H27.6V10.3077Z" fill="white"/>
<path d="M22 25C23.6569 25 25 23.6569 25 22C25 20.3431 23.6569 19 22 19C20.3431 19 19 20.3431 19 22C19 23.6569 20.3431 25 22 25Z" fill="white"/>
</svg>
